<mxfile host="app.diagrams.net" modified="2024-01-18T11:33:56.271Z" agent="Mozilla/5.0 (X11; Linux x86_64) AppleWebKit/537.36 (KHTML, like Gecko) Chrome/120.0.0.0 Safari/537.36" etag="PgcXFTg_bup_oFfhKd1h" version="22.1.21" type="github">
  <diagram name="Page-1" id="efvyXK25ZO0OqwwR3T38">
    <mxGraphModel dx="1382" dy="766" grid="1" gridSize="10" guides="1" tooltips="1" connect="1" arrows="1" fold="1" page="1" pageScale="1" pageWidth="850" pageHeight="1100" math="0" shadow="0">
      <root>
        <mxCell id="0" />
        <mxCell id="1" parent="0" />
        <mxCell id="i-wxioBPrlx5p6ISzlKl-1" style="edgeStyle=orthogonalEdgeStyle;rounded=0;orthogonalLoop=1;jettySize=auto;html=1;entryX=0.5;entryY=0;entryDx=0;entryDy=0;" edge="1" parent="1" source="oagU6lPWSOQpqtmDHDJ1-1" target="oagU6lPWSOQpqtmDHDJ1-2">
          <mxGeometry relative="1" as="geometry" />
        </mxCell>
        <mxCell id="oagU6lPWSOQpqtmDHDJ1-1" value="&lt;font style=&quot;font-size: 24px;&quot;&gt;get layouts&lt;/font&gt;" style="rounded=1;whiteSpace=wrap;html=1;" parent="1" vertex="1">
          <mxGeometry x="630" y="40" width="150" height="50" as="geometry" />
        </mxCell>
        <mxCell id="i-wxioBPrlx5p6ISzlKl-2" style="edgeStyle=orthogonalEdgeStyle;rounded=0;orthogonalLoop=1;jettySize=auto;html=1;entryX=0.5;entryY=0;entryDx=0;entryDy=0;" edge="1" parent="1" source="oagU6lPWSOQpqtmDHDJ1-2" target="oagU6lPWSOQpqtmDHDJ1-3">
          <mxGeometry relative="1" as="geometry" />
        </mxCell>
        <mxCell id="oagU6lPWSOQpqtmDHDJ1-2" value="&lt;font style=&quot;font-size: 18px;&quot;&gt;make a json file for camera id sequence&lt;/font&gt;" style="rounded=1;whiteSpace=wrap;html=1;" parent="1" vertex="1">
          <mxGeometry x="610" y="140" width="190" height="50" as="geometry" />
        </mxCell>
        <mxCell id="oagU6lPWSOQpqtmDHDJ1-8" value="" style="edgeStyle=orthogonalEdgeStyle;rounded=0;orthogonalLoop=1;jettySize=auto;html=1;" parent="1" source="oagU6lPWSOQpqtmDHDJ1-3" target="oagU6lPWSOQpqtmDHDJ1-7" edge="1">
          <mxGeometry relative="1" as="geometry" />
        </mxCell>
        <mxCell id="oagU6lPWSOQpqtmDHDJ1-3" value="&lt;font style=&quot;font-size: 18px;&quot;&gt;write a runner cmd line to Makefile&lt;/font&gt;" style="rounded=1;whiteSpace=wrap;html=1;" parent="1" vertex="1">
          <mxGeometry x="620" y="230" width="170" height="50" as="geometry" />
        </mxCell>
        <mxCell id="oagU6lPWSOQpqtmDHDJ1-12" value="" style="edgeStyle=orthogonalEdgeStyle;rounded=0;orthogonalLoop=1;jettySize=auto;html=1;" parent="1" source="oagU6lPWSOQpqtmDHDJ1-7" target="oagU6lPWSOQpqtmDHDJ1-11" edge="1">
          <mxGeometry relative="1" as="geometry" />
        </mxCell>
        <mxCell id="oagU6lPWSOQpqtmDHDJ1-7" value="&lt;font style=&quot;font-size: 18px;&quot;&gt;run with Makefile&lt;/font&gt;" style="rounded=1;whiteSpace=wrap;html=1;" parent="1" vertex="1">
          <mxGeometry x="620" y="320" width="170" height="50" as="geometry" />
        </mxCell>
        <mxCell id="oagU6lPWSOQpqtmDHDJ1-11" value="&lt;span style=&quot;font-size: 18px;&quot;&gt;rewrite json responses with correct camera ids&lt;/span&gt;" style="rounded=1;whiteSpace=wrap;html=1;" parent="1" vertex="1">
          <mxGeometry x="600" y="410" width="210" height="50" as="geometry" />
        </mxCell>
      </root>
    </mxGraphModel>
  </diagram>
</mxfile>
